<?xml version="1.0" encoding="UTF-8"?>
<!DOCTYPE svg PUBLIC "-//W3C//DTD SVG 1.1//EN" "http://www.w3.org/Graphics/SVG/1.1/DTD/svg11.dtd">
<!-- Creator: CorelDRAW 2018 (64-Bit) -->
<svg xmlns="http://www.w3.org/2000/svg" xml:space="preserve" width="36px" height="100px" version="1.1" style="shape-rendering:geometricPrecision; text-rendering:geometricPrecision; image-rendering:optimizeQuality; fill-rule:evenodd; clip-rule:evenodd"
viewBox="0 0 8.76 24.32"
 xmlns:xlink="http://www.w3.org/1999/xlink">
 <defs>
  <style type="text/css">
   <![CDATA[
    .fil0 {fill:black}
    .fil1 {fill:white}
   ]]>
  </style>
 </defs>
 <g id="Layer_x0020_1">
  <metadata id="CorelCorpID_0Corel-Layer"/>
  <g id="_2809488023728">
   <path class="fil0" d="M1.46 0l5.84 0c0.8,0 1.46,0.66 1.46,1.46l0 21.4c0,0.81 -0.66,1.46 -1.46,1.46l-5.84 0c-0.8,0 -1.46,-0.65 -1.46,-1.46l0 -21.4c0,-0.8 0.66,-1.46 1.46,-1.46z"/>
   <path class="fil1" d="M2.48 0.94c0.94,0 1.71,0.76 1.71,1.71 0,0.94 -0.77,1.71 -1.71,1.71 -0.95,0 -1.72,-0.77 -1.72,-1.71 0,-0.95 0.77,-1.71 1.72,-1.71z"/>
   <path class="fil1" d="M6.28 0.94c0.95,0 1.71,0.76 1.71,1.71 0,0.94 -0.76,1.71 -1.71,1.71 -0.94,0 -1.71,-0.77 -1.71,-1.71 0,-0.95 0.77,-1.71 1.71,-1.71z"/>
   <path class="fil1" d="M4.19 21.68c0,0.94 -0.77,1.71 -1.71,1.71 -0.95,0 -1.72,-0.77 -1.72,-1.71 0,-0.95 0.77,-1.72 1.72,-1.72 0.94,0 1.71,0.77 1.71,1.72z"/>
   <path class="fil1" d="M6.28 19.96c0.95,0 1.71,0.77 1.71,1.72 0,0.94 -0.76,1.71 -1.71,1.71 -0.94,0 -1.71,-0.77 -1.71,-1.71 0,-0.95 0.77,-1.72 1.71,-1.72z"/>
  </g>
 </g>
</svg>
