<?xml version="1.0" encoding="UTF-8"?>
<!DOCTYPE svg PUBLIC "-//W3C//DTD SVG 1.1//EN" "http://www.w3.org/Graphics/SVG/1.1/DTD/svg11.dtd">
<!-- Creator: CorelDRAW 2018 (64-Bit) -->
<svg xmlns="http://www.w3.org/2000/svg" xml:space="preserve" width="36px" height="100px" version="1.1" style="shape-rendering:geometricPrecision; text-rendering:geometricPrecision; image-rendering:optimizeQuality; fill-rule:evenodd; clip-rule:evenodd"
viewBox="0 0 5.45 15.13"
 xmlns:xlink="http://www.w3.org/1999/xlink">
 <defs>
  <style type="text/css">
   <![CDATA[
    .fil0 {fill:black}
    .fil1 {fill:white}
   ]]>
  </style>
 </defs>
 <g id="Layer_x0020_1">
  <metadata id="CorelCorpID_0Corel-Layer"/>
  <g id="_2809579673456">
   <path class="fil0" d="M0.91 0l3.63 0c0.5,0 0.91,0.41 0.91,0.91l0 13.31c0,0.5 -0.41,0.91 -0.91,0.91l-3.63 0c-0.5,0 -0.91,-0.41 -0.91,-0.91l0 -13.31c0,-0.5 0.41,-0.91 0.91,-0.91z"/>
   <path class="fil1" d="M1.54 0.58c0.59,0 1.06,0.48 1.06,1.07 0,0.59 -0.47,1.06 -1.06,1.06 -0.59,0 -1.07,-0.47 -1.07,-1.06 0,-0.59 0.48,-1.07 1.07,-1.07z"/>
   <path class="fil1" d="M3.91 0.58c0.58,0 1.06,0.48 1.06,1.07 0,0.59 -0.48,1.06 -1.06,1.06 -0.59,0 -1.07,-0.47 -1.07,-1.06 0,-0.59 0.48,-1.07 1.07,-1.07z"/>
   <path class="fil1" d="M2.6 6.38c0,0.59 -0.47,1.06 -1.06,1.06 -0.59,0 -1.07,-0.47 -1.07,-1.06 0,-0.59 0.48,-1.07 1.07,-1.07 0.59,0 1.06,0.48 1.06,1.07z"/>
   <path class="fil1" d="M2.6 8.75c0,0.58 -0.47,1.06 -1.06,1.06 -0.59,0 -1.07,-0.48 -1.07,-1.06 0,-0.59 0.48,-1.07 1.07,-1.07 0.59,0 1.06,0.48 1.06,1.07z"/>
   <path class="fil1" d="M2.6 11.11c0,0.59 -0.47,1.07 -1.06,1.07 -0.59,0 -1.07,-0.48 -1.07,-1.07 0,-0.59 0.48,-1.06 1.07,-1.06 0.59,0 1.06,0.47 1.06,1.06z"/>
   <path class="fil1" d="M2.6 13.48c0,0.59 -0.47,1.06 -1.06,1.06 -0.59,0 -1.07,-0.47 -1.07,-1.06 0,-0.59 0.48,-1.07 1.07,-1.07 0.59,0 1.06,0.48 1.06,1.07z"/>
   <path class="fil1" d="M2.72 2.95c0.59,0 1.07,0.48 1.07,1.06 0,0.59 -0.48,1.07 -1.07,1.07 -0.59,0 -1.06,-0.48 -1.06,-1.07 0,-0.58 0.47,-1.06 1.06,-1.06z"/>
   <path class="fil1" d="M3.91 5.31c0.58,0 1.06,0.48 1.06,1.07 0,0.59 -0.48,1.06 -1.06,1.06 -0.59,0 -1.07,-0.47 -1.07,-1.06 0,-0.59 0.48,-1.07 1.07,-1.07z"/>
   <path class="fil1" d="M3.91 7.68c0.58,0 1.06,0.48 1.06,1.07 0,0.58 -0.48,1.06 -1.06,1.06 -0.59,0 -1.07,-0.48 -1.07,-1.06 0,-0.59 0.48,-1.07 1.07,-1.07z"/>
   <path class="fil1" d="M3.91 10.05c0.58,0 1.06,0.47 1.06,1.06 0,0.59 -0.48,1.07 -1.06,1.07 -0.59,0 -1.07,-0.48 -1.07,-1.07 0,-0.59 0.48,-1.06 1.07,-1.06z"/>
   <path class="fil1" d="M3.91 12.41c0.58,0 1.06,0.48 1.06,1.07 0,0.59 -0.48,1.06 -1.06,1.06 -0.59,0 -1.07,-0.47 -1.07,-1.06 0,-0.59 0.48,-1.07 1.07,-1.07z"/>
  </g>
 </g>
</svg>
