<?xml version="1.0" encoding="UTF-8"?>
<!DOCTYPE svg PUBLIC "-//W3C//DTD SVG 1.1//EN" "http://www.w3.org/Graphics/SVG/1.1/DTD/svg11.dtd">
<!-- Creator: CorelDRAW 2018 (64-Bit) -->
<svg xmlns="http://www.w3.org/2000/svg" xml:space="preserve" width="36px" height="100px" version="1.1" style="shape-rendering:geometricPrecision; text-rendering:geometricPrecision; image-rendering:optimizeQuality; fill-rule:evenodd; clip-rule:evenodd"
viewBox="0 0 2.27 6.29"
 xmlns:xlink="http://www.w3.org/1999/xlink">
 <defs>
  <style type="text/css">
   <![CDATA[
    .fil0 {fill:black}
    .fil1 {fill:#ED3237}
    .fil2 {fill:white}
   ]]>
  </style>
 </defs>
 <g id="Layer_x0020_1">
  <metadata id="CorelCorpID_0Corel-Layer"/>
  <g id="_2809484177936">
   <path class="fil0" d="M0.38 0l1.51 0c0.21,0 0.38,0.17 0.38,0.38l0 5.54c0,0.2 -0.17,0.37 -0.38,0.37l-1.51 0c-0.21,0 -0.38,-0.17 -0.38,-0.37l0 -5.54c0,-0.21 0.17,-0.38 0.38,-0.38z"/>
   <path class="fil1" d="M1.13 0.24c0.25,0 0.45,0.2 0.45,0.45 0,0.24 -0.2,0.44 -0.45,0.44 -0.24,0 -0.44,-0.2 -0.44,-0.44 0,-0.25 0.2,-0.45 0.44,-0.45z"/>
   <path class="fil2" d="M1.08 5.61c0,0.24 -0.19,0.44 -0.44,0.44 -0.24,0 -0.44,-0.2 -0.44,-0.44 0,-0.25 0.2,-0.44 0.44,-0.44 0.25,0 0.44,0.19 0.44,0.44z"/>
   <path class="fil2" d="M1.63 5.17c0.24,0 0.44,0.19 0.44,0.44 0,0.24 -0.2,0.44 -0.44,0.44 -0.25,0 -0.45,-0.2 -0.45,-0.44 0,-0.25 0.2,-0.44 0.45,-0.44z"/>
  </g>
 </g>
</svg>
