<?xml version="1.0" encoding="UTF-8"?>
<!DOCTYPE svg PUBLIC "-//W3C//DTD SVG 1.1//EN" "http://www.w3.org/Graphics/SVG/1.1/DTD/svg11.dtd">
<!-- Creator: CorelDRAW 2018 (64-Bit) -->
<svg xmlns="http://www.w3.org/2000/svg" xml:space="preserve" width="36px" height="100px" version="1.1" style="shape-rendering:geometricPrecision; text-rendering:geometricPrecision; image-rendering:optimizeQuality; fill-rule:evenodd; clip-rule:evenodd"
viewBox="0 0 4.29 11.92"
 xmlns:xlink="http://www.w3.org/1999/xlink">
 <defs>
  <style type="text/css">
   <![CDATA[
    .fil0 {fill:black}
    .fil1 {fill:#ED3237}
   ]]>
  </style>
 </defs>
 <g id="Layer_x0020_1">
  <metadata id="CorelCorpID_0Corel-Layer"/>
  <g id="_2809485291760">
   <path class="fil0" d="M0.72 0l2.86 0c0.39,0 0.71,0.32 0.71,0.72l0 10.48c0,0.4 -0.32,0.72 -0.71,0.72l-2.86 0c-0.4,0 -0.72,-0.32 -0.72,-0.72l0 -10.48c0,-0.4 0.32,-0.72 0.72,-0.72z"/>
   <path class="fil1" d="M2.15 0.46c0.46,0 0.84,0.37 0.84,0.84 0,0.46 -0.38,0.84 -0.84,0.84 -0.47,0 -0.84,-0.38 -0.84,-0.84 0,-0.47 0.37,-0.84 0.84,-0.84z"/>
   <path class="fil1" d="M2.99 10.62c0,0.47 -0.38,0.84 -0.84,0.84 -0.47,0 -0.84,-0.37 -0.84,-0.84 0,-0.46 0.37,-0.84 0.84,-0.84 0.46,0 0.84,0.38 0.84,0.84z"/>
  </g>
 </g>
</svg>
