<?xml version="1.0" encoding="UTF-8"?>
<!DOCTYPE svg PUBLIC "-//W3C//DTD SVG 1.1//EN" "http://www.w3.org/Graphics/SVG/1.1/DTD/svg11.dtd">
<!-- Creator: CorelDRAW 2018 (64-Bit) -->
<svg xmlns="http://www.w3.org/2000/svg" xml:space="preserve" width="36px" height="100px" version="1.1" style="shape-rendering:geometricPrecision; text-rendering:geometricPrecision; image-rendering:optimizeQuality; fill-rule:evenodd; clip-rule:evenodd"
viewBox="0 0 3.31 9.18"
 xmlns:xlink="http://www.w3.org/1999/xlink">
 <defs>
  <style type="text/css">
   <![CDATA[
    .fil0 {fill:black}
    .fil1 {fill:#ED3237}
    .fil2 {fill:white}
   ]]>
  </style>
 </defs>
 <g id="Layer_x0020_1">
  <metadata id="CorelCorpID_0Corel-Layer"/>
  <g id="_2809579675664">
   <path class="fil0" d="M0.55 0l2.2 0c0.31,0 0.56,0.25 0.56,0.55l0 8.08c0,0.31 -0.25,0.55 -0.56,0.55l-2.2 0c-0.3,0 -0.55,-0.24 -0.55,-0.55l0 -8.08c0,-0.3 0.25,-0.55 0.55,-0.55z"/>
   <path class="fil1" d="M0.93 0.35c0.36,0 0.65,0.29 0.65,0.65 0,0.36 -0.29,0.65 -0.65,0.65 -0.35,0 -0.64,-0.29 -0.64,-0.65 0,-0.36 0.29,-0.65 0.64,-0.65z"/>
   <path class="fil2" d="M2.37 0.35c0.36,0 0.65,0.29 0.65,0.65 0,0.36 -0.29,0.65 -0.65,0.65 -0.36,0 -0.65,-0.29 -0.65,-0.65 0,-0.36 0.29,-0.65 0.65,-0.65z"/>
   <path class="fil1" d="M1.58 2.44c0,0.35 -0.29,0.64 -0.65,0.64 -0.35,0 -0.64,-0.29 -0.64,-0.64 0,-0.36 0.29,-0.65 0.64,-0.65 0.36,0 0.65,0.29 0.65,0.65z"/>
   <path class="fil1" d="M1.58 3.87c0,0.36 -0.29,0.65 -0.65,0.65 -0.35,0 -0.64,-0.29 -0.64,-0.65 0,-0.35 0.29,-0.64 0.64,-0.64 0.36,0 0.65,0.29 0.65,0.64z"/>
   <path class="fil2" d="M1.58 5.31c0,0.36 -0.29,0.65 -0.65,0.65 -0.35,0 -0.64,-0.29 -0.64,-0.65 0,-0.36 0.29,-0.65 0.64,-0.65 0.36,0 0.65,0.29 0.65,0.65z"/>
   <path class="fil2" d="M1.58 6.75c0,0.35 -0.29,0.64 -0.65,0.64 -0.35,0 -0.64,-0.29 -0.64,-0.64 0,-0.36 0.29,-0.65 0.64,-0.65 0.36,0 0.65,0.29 0.65,0.65z"/>
   <path class="fil2" d="M1.58 8.18c0,0.36 -0.29,0.65 -0.65,0.65 -0.35,0 -0.64,-0.29 -0.64,-0.65 0,-0.35 0.29,-0.64 0.64,-0.64 0.36,0 0.65,0.29 0.65,0.64z"/>
   <path class="fil2" d="M2.37 1.79c0.36,0 0.65,0.29 0.65,0.65 0,0.35 -0.29,0.64 -0.65,0.64 -0.36,0 -0.65,-0.29 -0.65,-0.64 0,-0.36 0.29,-0.65 0.65,-0.65z"/>
   <path class="fil2" d="M2.37 3.23c0.36,0 0.65,0.29 0.65,0.64 0,0.36 -0.29,0.65 -0.65,0.65 -0.36,0 -0.65,-0.29 -0.65,-0.65 0,-0.35 0.29,-0.64 0.65,-0.64z"/>
   <path class="fil1" d="M2.37 4.66c0.36,0 0.65,0.29 0.65,0.65 0,0.36 -0.29,0.65 -0.65,0.65 -0.36,0 -0.65,-0.29 -0.65,-0.65 0,-0.36 0.29,-0.65 0.65,-0.65z"/>
   <path class="fil1" d="M2.37 6.1c0.36,0 0.65,0.29 0.65,0.65 0,0.35 -0.29,0.64 -0.65,0.64 -0.36,0 -0.65,-0.29 -0.65,-0.64 0,-0.36 0.29,-0.65 0.65,-0.65z"/>
   <path class="fil1" d="M2.37 7.54c0.36,0 0.65,0.29 0.65,0.64 0,0.36 -0.29,0.65 -0.65,0.65 -0.36,0 -0.65,-0.29 -0.65,-0.65 0,-0.35 0.29,-0.64 0.65,-0.64z"/>
  </g>
 </g>
</svg>
