<?xml version="1.0" encoding="UTF-8"?>
<!DOCTYPE svg PUBLIC "-//W3C//DTD SVG 1.1//EN" "http://www.w3.org/Graphics/SVG/1.1/DTD/svg11.dtd">
<!-- Creator: CorelDRAW 2018 (64-Bit) -->
<svg xmlns="http://www.w3.org/2000/svg" xml:space="preserve" width="36px" height="100px" version="1.1" style="shape-rendering:geometricPrecision; text-rendering:geometricPrecision; image-rendering:optimizeQuality; fill-rule:evenodd; clip-rule:evenodd"
viewBox="0 0 10.62 29.51"
 xmlns:xlink="http://www.w3.org/1999/xlink">
 <defs>
  <style type="text/css">
   <![CDATA[
    .fil0 {fill:black}
    .fil1 {fill:#ED3237}
    .fil2 {fill:white}
   ]]>
  </style>
 </defs>
 <g id="Layer_x0020_1">
  <metadata id="CorelCorpID_0Corel-Layer"/>
  <g id="_2809579663312">
   <path class="fil0" d="M1.77 0l7.08 0c0.98,0 1.77,0.8 1.77,1.77l0 25.97c0,0.97 -0.79,1.77 -1.77,1.77l-7.08 0c-0.97,0 -1.77,-0.8 -1.77,-1.77l0 -25.97c0,-0.97 0.8,-1.77 1.77,-1.77z"/>
   <path class="fil1" d="M5.31 1.14c1.15,0 2.08,0.93 2.08,2.07 0,1.15 -0.93,2.08 -2.08,2.08 -1.15,0 -2.08,-0.93 -2.08,-2.08 0,-1.14 0.93,-2.07 2.08,-2.07z"/>
   <path class="fil2" d="M7.39 20.52c0,1.15 -0.93,2.08 -2.08,2.08 -1.15,0 -2.08,-0.93 -2.08,-2.08 0,-1.14 0.93,-2.07 2.08,-2.07 1.15,0 2.08,0.93 2.08,2.07z"/>
   <path class="fil2" d="M5.08 26.29c0,1.15 -0.93,2.08 -2.08,2.08 -1.14,0 -2.07,-0.93 -2.07,-2.08 0,-1.14 0.93,-2.07 2.07,-2.07 1.15,0 2.08,0.93 2.08,2.07z"/>
   <path class="fil2" d="M7.62 12.68c1.15,0 2.08,0.93 2.08,2.07 0,1.15 -0.93,2.08 -2.08,2.08 -1.15,0 -2.08,-0.93 -2.08,-2.08 0,-1.14 0.93,-2.07 2.08,-2.07z"/>
  </g>
 </g>
</svg>
