<?xml version="1.0" encoding="UTF-8"?>
<!DOCTYPE svg PUBLIC "-//W3C//DTD SVG 1.1//EN" "http://www.w3.org/Graphics/SVG/1.1/DTD/svg11.dtd">
<!-- Creator: CorelDRAW 2018 (64-Bit) -->
<svg xmlns="http://www.w3.org/2000/svg" xml:space="preserve" width="36px" height="100px" version="1.1" style="shape-rendering:geometricPrecision; text-rendering:geometricPrecision; image-rendering:optimizeQuality; fill-rule:evenodd; clip-rule:evenodd"
viewBox="0 0 40.5 112.5"
 xmlns:xlink="http://www.w3.org/1999/xlink">
 <defs>
  <style type="text/css">
   <![CDATA[
    .fil0 {fill:black}
    .fil1 {fill:white}
   ]]>
  </style>
 </defs>
 <g id="Layer_x0020_1">
  <metadata id="CorelCorpID_0Corel-Layer"/>
  <g id="_2809403381872">
   <path class="fil0" d="M6.75 0l27 0c3.71,0 6.75,3.03 6.75,6.75l0 98.99c0,3.72 -3.04,6.76 -6.75,6.76l-27 0c-3.71,0 -6.75,-3.04 -6.75,-6.76l0 -98.99c0,-3.72 3.04,-6.75 6.75,-6.75z"/>
   <path class="fil1" d="M11.45 4.33c4.37,0 7.92,3.55 7.92,7.92 0,4.37 -3.55,7.92 -7.92,7.92 -4.37,0 -7.92,-3.55 -7.92,-7.92 0,-4.37 3.55,-7.92 7.92,-7.92z"/>
   <path class="fil1" d="M29.05 4.33c4.37,0 7.92,3.55 7.92,7.92 0,4.37 -3.55,7.92 -7.92,7.92 -4.37,0 -7.92,-3.55 -7.92,-7.92 0,-4.37 3.55,-7.92 7.92,-7.92z"/>
   <path class="fil1" d="M19.37 47.45c0,4.37 -3.55,7.92 -7.92,7.92 -4.37,0 -7.92,-3.55 -7.92,-7.92 0,-4.38 3.55,-7.92 7.92,-7.92 4.37,0 7.92,3.54 7.92,7.92z"/>
   <path class="fil1" d="M19.37 65.05c0,4.37 -3.55,7.92 -7.92,7.92 -4.37,0 -7.92,-3.55 -7.92,-7.92 0,-4.38 3.55,-7.92 7.92,-7.92 4.37,0 7.92,3.54 7.92,7.92z"/>
   <path class="fil1" d="M19.37 100.25c0,4.37 -3.55,7.92 -7.92,7.92 -4.37,0 -7.92,-3.55 -7.92,-7.92 0,-4.38 3.55,-7.92 7.92,-7.92 4.37,0 7.92,3.54 7.92,7.92z"/>
   <path class="fil1" d="M20.25 21.93c4.37,0 7.92,3.54 7.92,7.92 0,4.37 -3.55,7.92 -7.92,7.92 -4.37,0 -7.92,-3.55 -7.92,-7.92 0,-4.38 3.55,-7.92 7.92,-7.92z"/>
   <path class="fil1" d="M29.05 39.53c4.37,0 7.92,3.54 7.92,7.92 0,4.37 -3.55,7.92 -7.92,7.92 -4.37,0 -7.92,-3.55 -7.92,-7.92 0,-4.38 3.55,-7.92 7.92,-7.92z"/>
   <path class="fil1" d="M29.05 57.13c4.37,0 7.92,3.54 7.92,7.92 0,4.37 -3.55,7.92 -7.92,7.92 -4.37,0 -7.92,-3.55 -7.92,-7.92 0,-4.38 3.55,-7.92 7.92,-7.92z"/>
   <path class="fil1" d="M20.25 74.73c4.37,0 7.92,3.54 7.92,7.92 0,4.37 -3.55,7.92 -7.92,7.92 -4.37,0 -7.92,-3.55 -7.92,-7.92 0,-4.38 3.55,-7.92 7.92,-7.92z"/>
   <path class="fil1" d="M29.05 92.33c4.37,0 7.92,3.54 7.92,7.92 0,4.37 -3.55,7.92 -7.92,7.92 -4.37,0 -7.92,-3.55 -7.92,-7.92 0,-4.38 3.55,-7.92 7.92,-7.92z"/>
  </g>
 </g>
</svg>
