<?xml version="1.0" encoding="UTF-8"?>
<!DOCTYPE svg PUBLIC "-//W3C//DTD SVG 1.1//EN" "http://www.w3.org/Graphics/SVG/1.1/DTD/svg11.dtd">
<!-- Creator: CorelDRAW 2018 (64-Bit) -->
<svg xmlns="http://www.w3.org/2000/svg" xml:space="preserve" width="36px" height="100px" version="1.1" style="shape-rendering:geometricPrecision; text-rendering:geometricPrecision; image-rendering:optimizeQuality; fill-rule:evenodd; clip-rule:evenodd"
viewBox="0 0 22.35 62.07"
 xmlns:xlink="http://www.w3.org/1999/xlink">
 <defs>
  <style type="text/css">
   <![CDATA[
    .fil0 {fill:black}
    .fil1 {fill:white}
   ]]>
  </style>
 </defs>
 <g id="Layer_x0020_1">
  <metadata id="CorelCorpID_0Corel-Layer"/>
  <g id="_2809477182720">
   <path class="fil0" d="M3.72 0l14.9 0c2.05,0 3.73,1.67 3.73,3.73l0 54.61c0,2.06 -1.68,3.73 -3.73,3.73l-14.9 0c-2.04,0 -3.72,-1.67 -3.72,-3.73l0 -54.61c0,-2.06 1.68,-3.73 3.72,-3.73z"/>
   <path class="fil1" d="M11.17 2.39c2.42,0 4.37,1.96 4.37,4.37 0,2.41 -1.95,4.37 -4.37,4.37 -2.41,0 -4.37,-1.96 -4.37,-4.37 0,-2.41 1.96,-4.37 4.37,-4.37z"/>
   <path class="fil1" d="M10.69 31.03c0,2.42 -1.96,4.38 -4.37,4.38 -2.42,0 -4.37,-1.96 -4.37,-4.38 0,-2.41 1.95,-4.37 4.37,-4.37 2.41,0 4.37,1.96 4.37,4.37z"/>
   <path class="fil1" d="M15.54 55.31c0,2.41 -1.95,4.37 -4.37,4.37 -2.41,0 -4.37,-1.96 -4.37,-4.37 0,-2.41 1.96,-4.37 4.37,-4.37 2.42,0 4.37,1.96 4.37,4.37z"/>
   <path class="fil1" d="M11.17 14.53c2.42,0 4.37,1.95 4.37,4.37 0,2.41 -1.95,4.37 -4.37,4.37 -2.41,0 -4.37,-1.96 -4.37,-4.37 0,-2.42 1.96,-4.37 4.37,-4.37z"/>
   <path class="fil1" d="M16.03 26.66c2.41,0 4.37,1.96 4.37,4.37 0,2.42 -1.96,4.38 -4.37,4.38 -2.42,0 -4.37,-1.96 -4.37,-4.38 0,-2.41 1.95,-4.37 4.37,-4.37z"/>
   <path class="fil1" d="M15.54 43.17c0,2.42 -1.95,4.37 -4.37,4.37 -2.41,0 -4.37,-1.95 -4.37,-4.37 0,-2.41 1.96,-4.37 4.37,-4.37 2.42,0 4.37,1.96 4.37,4.37z"/>
  </g>
 </g>
</svg>
