<?xml version="1.0" encoding="UTF-8"?>
<!DOCTYPE svg PUBLIC "-//W3C//DTD SVG 1.1//EN" "http://www.w3.org/Graphics/SVG/1.1/DTD/svg11.dtd">
<!-- Creator: CorelDRAW 2018 (64-Bit) -->
<svg xmlns="http://www.w3.org/2000/svg" xml:space="preserve" width="36px" height="100px" version="1.1" style="shape-rendering:geometricPrecision; text-rendering:geometricPrecision; image-rendering:optimizeQuality; fill-rule:evenodd; clip-rule:evenodd"
viewBox="0 0 5.45 15.13"
 xmlns:xlink="http://www.w3.org/1999/xlink">
 <defs>
  <style type="text/css">
   <![CDATA[
    .fil0 {fill:black}
    .fil1 {fill:white}
   ]]>
  </style>
 </defs>
 <g id="Layer_x0020_1">
  <metadata id="CorelCorpID_0Corel-Layer"/>
  <g id="_2339819395856">
   <rect class="fil0" width="5.45" height="15.13" rx="0.07" ry="1.22"/>
   <circle class="fil1" cx="1.54" cy="1.65" r="1.07"/>
   <circle class="fil1" cx="3.91" cy="1.65" r="1.07"/>
   <circle class="fil1" transform="matrix(3.29825E-15 0.124536 -0.124535 3.29827E-15 1.53974 6.3798)" r="8.55"/>
   <circle class="fil1" transform="matrix(3.29825E-15 0.124536 -0.124535 3.29827E-15 1.53974 8.74616)" r="8.55"/>
   <circle class="fil1" transform="matrix(3.29825E-15 0.124536 -0.124535 3.29827E-15 1.53974 11.1125)" r="8.55"/>
   <circle class="fil1" transform="matrix(3.29825E-15 0.124536 -0.124535 3.29827E-15 1.53974 13.4789)" r="8.55"/>
   <circle class="fil1" cx="2.72" cy="4.01" r="1.07"/>
   <circle class="fil1" cx="3.91" cy="6.38" r="1.07"/>
   <circle class="fil1" cx="3.91" cy="8.75" r="1.07"/>
   <circle class="fil1" cx="3.91" cy="11.11" r="1.07"/>
   <circle class="fil1" cx="3.91" cy="13.48" r="1.07"/>
  </g>
 </g>
</svg>
