<?xml version="1.0" encoding="UTF-8"?>
<!DOCTYPE svg PUBLIC "-//W3C//DTD SVG 1.1//EN" "http://www.w3.org/Graphics/SVG/1.1/DTD/svg11.dtd">
<!-- Creator: CorelDRAW 2018 (64-Bit) -->
<svg xmlns="http://www.w3.org/2000/svg" xml:space="preserve" width="36px" height="100px" version="1.1" style="shape-rendering:geometricPrecision; text-rendering:geometricPrecision; image-rendering:optimizeQuality; fill-rule:evenodd; clip-rule:evenodd"
viewBox="0 0 1.49 4.15"
 xmlns:xlink="http://www.w3.org/1999/xlink">
 <defs>
  <style type="text/css">
   <![CDATA[
    .fil0 {fill:black}
    .fil1 {fill:white}
   ]]>
  </style>
 </defs>
 <g id="Layer_x0020_1">
  <metadata id="CorelCorpID_0Corel-Layer"/>
  <g id="_2809579676048">
   <path class="fil0" d="M0.25 0l0.99 0c0.14,0 0.25,0.11 0.25,0.25l0 3.65c0,0.14 -0.11,0.25 -0.25,0.25l-0.99 0c-0.14,0 -0.25,-0.11 -0.25,-0.25l0 -3.65c0,-0.14 0.11,-0.25 0.25,-0.25z"/>
   <path class="fil1" d="M1.07 0.16c0.16,0 0.29,0.13 0.29,0.29 0,0.16 -0.13,0.29 -0.29,0.29 -0.16,0 -0.29,-0.13 -0.29,-0.29 0,-0.16 0.13,-0.29 0.29,-0.29z"/>
   <path class="fil1" d="M0.71 1.75c0,0.16 -0.13,0.29 -0.29,0.29 -0.16,0 -0.29,-0.13 -0.29,-0.29 0,-0.16 0.13,-0.29 0.29,-0.29 0.16,0 0.29,0.13 0.29,0.29z"/>
   <path class="fil1" d="M0.71 2.4c0,0.16 -0.13,0.29 -0.29,0.29 -0.16,0 -0.29,-0.13 -0.29,-0.29 0,-0.16 0.13,-0.29 0.29,-0.29 0.16,0 0.29,0.13 0.29,0.29z"/>
   <path class="fil1" d="M0.71 3.7c0,0.16 -0.13,0.29 -0.29,0.29 -0.16,0 -0.29,-0.13 -0.29,-0.29 0,-0.17 0.13,-0.3 0.29,-0.3 0.16,0 0.29,0.13 0.29,0.3z"/>
   <path class="fil1" d="M0.75 0.81c0.16,0 0.29,0.13 0.29,0.29 0,0.16 -0.13,0.29 -0.29,0.29 -0.16,0 -0.3,-0.13 -0.3,-0.29 0,-0.16 0.14,-0.29 0.3,-0.29z"/>
   <path class="fil1" d="M1.07 2.11c0.16,0 0.29,0.13 0.29,0.29 0,0.16 -0.13,0.29 -0.29,0.29 -0.16,0 -0.29,-0.13 -0.29,-0.29 0,-0.16 0.13,-0.29 0.29,-0.29z"/>
   <path class="fil1" d="M0.75 2.75c0.16,0 0.29,0.14 0.29,0.3 0,0.16 -0.13,0.29 -0.29,0.29 -0.16,0 -0.3,-0.13 -0.3,-0.29 0,-0.16 0.14,-0.3 0.3,-0.3z"/>
   <path class="fil1" d="M1.07 3.4c0.16,0 0.29,0.13 0.29,0.3 0,0.16 -0.13,0.29 -0.29,0.29 -0.16,0 -0.29,-0.13 -0.29,-0.29 0,-0.17 0.13,-0.3 0.29,-0.3z"/>
  </g>
 </g>
</svg>
