<?xml version="1.0" encoding="UTF-8"?>
<!DOCTYPE svg PUBLIC "-//W3C//DTD SVG 1.1//EN" "http://www.w3.org/Graphics/SVG/1.1/DTD/svg11.dtd">
<!-- Creator: CorelDRAW 2018 (64-Bit) -->
<svg xmlns="http://www.w3.org/2000/svg" xml:space="preserve" width="36px" height="100px" version="1.1" style="shape-rendering:geometricPrecision; text-rendering:geometricPrecision; image-rendering:optimizeQuality; fill-rule:evenodd; clip-rule:evenodd"
viewBox="0 0 1.35 3.76"
 xmlns:xlink="http://www.w3.org/1999/xlink">
 <defs>
  <style type="text/css">
   <![CDATA[
    .fil0 {fill:black}
    .fil1 {fill:white}
   ]]>
  </style>
 </defs>
 <g id="Layer_x0020_1">
  <metadata id="CorelCorpID_0Corel-Layer"/>
  <g id="_2809582419840">
   <path class="fil0" d="M0.23 0l0.9 0c0.12,0 0.22,0.1 0.22,0.23l0 3.3c0,0.13 -0.1,0.23 -0.22,0.23l-0.9 0c-0.13,0 -0.23,-0.1 -0.23,-0.23l0 -3.3c0,-0.13 0.1,-0.23 0.23,-0.23z"/>
   <path class="fil1" d="M0.38 0.14c0.15,0 0.27,0.12 0.27,0.27 0,0.15 -0.12,0.26 -0.27,0.26 -0.14,0 -0.26,-0.11 -0.26,-0.26 0,-0.15 0.12,-0.27 0.26,-0.27z"/>
   <path class="fil1" d="M0.97 0.14c0.15,0 0.27,0.12 0.27,0.27 0,0.15 -0.12,0.26 -0.27,0.26 -0.15,0 -0.26,-0.11 -0.26,-0.26 0,-0.15 0.11,-0.27 0.26,-0.27z"/>
   <path class="fil1" d="M0.65 2.17c0,0.15 -0.12,0.27 -0.27,0.27 -0.14,0 -0.26,-0.12 -0.26,-0.27 0,-0.14 0.12,-0.26 0.26,-0.26 0.15,0 0.27,0.12 0.27,0.26z"/>
   <path class="fil1" d="M0.65 3.35c0,0.14 -0.12,0.26 -0.27,0.26 -0.14,0 -0.26,-0.12 -0.26,-0.26 0,-0.15 0.12,-0.27 0.26,-0.27 0.15,0 0.27,0.12 0.27,0.27z"/>
   <path class="fil1" d="M0.97 1.91c0.15,0 0.27,0.12 0.27,0.26 0,0.15 -0.12,0.27 -0.27,0.27 -0.15,0 -0.26,-0.12 -0.26,-0.27 0,-0.14 0.11,-0.26 0.26,-0.26z"/>
   <path class="fil1" d="M0.68 2.5c0.14,0 0.26,0.11 0.26,0.26 0,0.15 -0.12,0.27 -0.26,0.27 -0.15,0 -0.27,-0.12 -0.27,-0.27 0,-0.15 0.12,-0.26 0.27,-0.26z"/>
   <path class="fil1" d="M0.97 3.08c0.15,0 0.27,0.12 0.27,0.27 0,0.14 -0.12,0.26 -0.27,0.26 -0.15,0 -0.26,-0.12 -0.26,-0.26 0,-0.15 0.11,-0.27 0.26,-0.27z"/>
  </g>
 </g>
</svg>
