<?xml version="1.0" encoding="UTF-8"?>
<!DOCTYPE svg PUBLIC "-//W3C//DTD SVG 1.1//EN" "http://www.w3.org/Graphics/SVG/1.1/DTD/svg11.dtd">
<!-- Creator: CorelDRAW 2018 (64-Bit) -->
<svg xmlns="http://www.w3.org/2000/svg" xml:space="preserve" width="36px" height="100px" version="1.1" style="shape-rendering:geometricPrecision; text-rendering:geometricPrecision; image-rendering:optimizeQuality; fill-rule:evenodd; clip-rule:evenodd"
viewBox="0 0 1.14 3.16"
 xmlns:xlink="http://www.w3.org/1999/xlink">
 <defs>
  <style type="text/css">
   <![CDATA[
    .fil0 {fill:black}
    .fil1 {fill:#ED3237}
   ]]>
  </style>
 </defs>
 <g id="Layer_x0020_1">
  <metadata id="CorelCorpID_0Corel-Layer"/>
  <g id="_2809579701296">
   <path class="fil0" d="M0.19 0l0.76 0c0.1,0 0.19,0.09 0.19,0.19l0 2.78c0,0.11 -0.09,0.19 -0.19,0.19l-0.76 0c-0.1,0 -0.19,-0.08 -0.19,-0.19l0 -2.78c0,-0.1 0.09,-0.19 0.19,-0.19z"/>
   <path class="fil1" d="M0.32 0.12c0.13,0 0.22,0.1 0.22,0.22 0,0.13 -0.09,0.23 -0.22,0.23 -0.12,0 -0.22,-0.1 -0.22,-0.23 0,-0.12 0.1,-0.22 0.22,-0.22z"/>
   <path class="fil1" d="M0.82 0.12c0.12,0 0.22,0.1 0.22,0.22 0,0.13 -0.1,0.23 -0.22,0.23 -0.13,0 -0.23,-0.1 -0.23,-0.23 0,-0.12 0.1,-0.22 0.23,-0.22z"/>
   <path class="fil1" d="M0.54 1.17c0,0.12 -0.09,0.22 -0.22,0.22 -0.12,0 -0.22,-0.1 -0.22,-0.22 0,-0.12 0.1,-0.22 0.22,-0.22 0.13,0 0.22,0.1 0.22,0.22z"/>
   <path class="fil1" d="M0.82 0.95c0.12,0 0.22,0.1 0.22,0.22 0,0.12 -0.1,0.22 -0.22,0.22 -0.13,0 -0.23,-0.1 -0.23,-0.22 0,-0.12 0.1,-0.22 0.23,-0.22z"/>
   <path class="fil1" d="M0.57 2.6c0.12,0 0.22,0.1 0.22,0.22 0,0.12 -0.1,0.22 -0.22,0.22 -0.12,0 -0.22,-0.1 -0.22,-0.22 0,-0.12 0.1,-0.22 0.22,-0.22z"/>
  </g>
 </g>
</svg>
