<?xml version="1.0" encoding="UTF-8"?>
<!DOCTYPE svg PUBLIC "-//W3C//DTD SVG 1.1//EN" "http://www.w3.org/Graphics/SVG/1.1/DTD/svg11.dtd">
<!-- Creator: CorelDRAW 2018 (64-Bit) -->
<svg xmlns="http://www.w3.org/2000/svg" xml:space="preserve" width="36px" height="100px" version="1.1" style="shape-rendering:geometricPrecision; text-rendering:geometricPrecision; image-rendering:optimizeQuality; fill-rule:evenodd; clip-rule:evenodd"
viewBox="0 0 1.06 2.93"
 xmlns:xlink="http://www.w3.org/1999/xlink">
 <defs>
  <style type="text/css">
   <![CDATA[
    .fil0 {fill:black}
    .fil1 {fill:white}
   ]]>
  </style>
 </defs>
 <g id="Layer_x0020_1">
  <metadata id="CorelCorpID_0Corel-Layer"/>
  <g id="_2809579718128">
   <path class="fil0" d="M0.18 0l0.7 0c0.1,0 0.18,0.08 0.18,0.18l0 2.58c0,0.09 -0.08,0.17 -0.18,0.17l-0.7 0c-0.1,0 -0.18,-0.08 -0.18,-0.17l0 -2.58c0,-0.1 0.08,-0.18 0.18,-0.18z"/>
   <path class="fil1" d="M0.3 0.11c0.11,0 0.2,0.1 0.2,0.21 0,0.11 -0.09,0.21 -0.2,0.21 -0.12,0 -0.21,-0.1 -0.21,-0.21 0,-0.11 0.09,-0.21 0.21,-0.21z"/>
   <path class="fil1" d="M0.76 0.11c0.11,0 0.2,0.1 0.2,0.21 0,0.11 -0.09,0.21 -0.2,0.21 -0.12,0 -0.21,-0.1 -0.21,-0.21 0,-0.11 0.09,-0.21 0.21,-0.21z"/>
   <path class="fil1" d="M0.5 2.61c0,0.12 -0.09,0.21 -0.2,0.21 -0.12,0 -0.21,-0.09 -0.21,-0.21 0,-0.11 0.09,-0.2 0.21,-0.2 0.11,0 0.2,0.09 0.2,0.2z"/>
   <path class="fil1" d="M0.76 1.26c0.11,0 0.2,0.09 0.2,0.21 0,0.11 -0.09,0.2 -0.2,0.2 -0.12,0 -0.21,-0.09 -0.21,-0.2 0,-0.12 0.09,-0.21 0.21,-0.21z"/>
   <path class="fil1" d="M0.53 1.83c0.11,0 0.2,0.1 0.2,0.21 0,0.11 -0.09,0.21 -0.2,0.21 -0.12,0 -0.21,-0.1 -0.21,-0.21 0,-0.11 0.09,-0.21 0.21,-0.21z"/>
  </g>
 </g>
</svg>
