<?xml version="1.0" encoding="UTF-8"?>
<!DOCTYPE svg PUBLIC "-//W3C//DTD SVG 1.1//EN" "http://www.w3.org/Graphics/SVG/1.1/DTD/svg11.dtd">
<!-- Creator: CorelDRAW 2018 (64-Bit) -->
<svg xmlns="http://www.w3.org/2000/svg" xml:space="preserve" width="36px" height="100px" version="1.1" style="shape-rendering:geometricPrecision; text-rendering:geometricPrecision; image-rendering:optimizeQuality; fill-rule:evenodd; clip-rule:evenodd"
viewBox="0 0 3.95 10.98"
 xmlns:xlink="http://www.w3.org/1999/xlink">
 <defs>
  <style type="text/css">
   <![CDATA[
    .fil0 {fill:black}
    .fil1 {fill:#ED3237}
    .fil2 {fill:white}
   ]]>
  </style>
 </defs>
 <g id="Layer_x0020_1">
  <metadata id="CorelCorpID_0Corel-Layer"/>
  <g id="_2809488024656">
   <path class="fil0" d="M0.66 0l2.63 0c0.36,0 0.66,0.3 0.66,0.66l0 9.66c0,0.36 -0.3,0.66 -0.66,0.66l-2.63 0c-0.36,0 -0.66,-0.3 -0.66,-0.66l0 -9.66c0,-0.36 0.3,-0.66 0.66,-0.66z"/>
   <path class="fil1" d="M1.12 0.42c0.42,0 0.77,0.35 0.77,0.78 0,0.42 -0.35,0.77 -0.77,0.77 -0.43,0 -0.78,-0.35 -0.78,-0.77 0,-0.43 0.35,-0.78 0.78,-0.78z"/>
   <path class="fil1" d="M2.83 0.42c0.43,0 0.78,0.35 0.78,0.78 0,0.42 -0.35,0.77 -0.78,0.77 -0.42,0 -0.77,-0.35 -0.77,-0.77 0,-0.43 0.35,-0.78 0.77,-0.78z"/>
   <path class="fil1" d="M1.89 4.06c0,0.42 -0.35,0.77 -0.77,0.77 -0.43,0 -0.78,-0.35 -0.78,-0.77 0,-0.43 0.35,-0.78 0.78,-0.78 0.42,0 0.77,0.35 0.77,0.78z"/>
   <path class="fil2" d="M1.89 6.35c0,0.42 -0.35,0.77 -0.77,0.77 -0.43,0 -0.78,-0.35 -0.78,-0.77 0,-0.43 0.35,-0.78 0.78,-0.78 0.42,0 0.77,0.35 0.77,0.78z"/>
   <path class="fil2" d="M1.89 8.06c0,0.43 -0.35,0.78 -0.77,0.78 -0.43,0 -0.78,-0.35 -0.78,-0.78 0,-0.42 0.35,-0.77 0.78,-0.77 0.42,0 0.77,0.35 0.77,0.77z"/>
   <path class="fil2" d="M1.89 9.78c0,0.43 -0.35,0.77 -0.77,0.77 -0.43,0 -0.78,-0.34 -0.78,-0.77 0,-0.43 0.35,-0.77 0.78,-0.77 0.42,0 0.77,0.34 0.77,0.77z"/>
   <path class="fil1" d="M2.83 3.28c0.43,0 0.78,0.35 0.78,0.78 0,0.42 -0.35,0.77 -0.78,0.77 -0.42,0 -0.77,-0.35 -0.77,-0.77 0,-0.43 0.35,-0.78 0.77,-0.78z"/>
   <path class="fil2" d="M2.83 5.57c0.43,0 0.78,0.35 0.78,0.78 0,0.42 -0.35,0.77 -0.78,0.77 -0.42,0 -0.77,-0.35 -0.77,-0.77 0,-0.43 0.35,-0.78 0.77,-0.78z"/>
   <path class="fil2" d="M2.83 7.29c0.43,0 0.78,0.35 0.78,0.77 0,0.43 -0.35,0.78 -0.78,0.78 -0.42,0 -0.77,-0.35 -0.77,-0.78 0,-0.42 0.35,-0.77 0.77,-0.77z"/>
   <path class="fil2" d="M2.83 9.01c0.43,0 0.78,0.34 0.78,0.77 0,0.43 -0.35,0.77 -0.78,0.77 -0.42,0 -0.77,-0.34 -0.77,-0.77 0,-0.43 0.35,-0.77 0.77,-0.77z"/>
  </g>
 </g>
</svg>
