<?xml version="1.0" encoding="UTF-8"?>
<!DOCTYPE svg PUBLIC "-//W3C//DTD SVG 1.1//EN" "http://www.w3.org/Graphics/SVG/1.1/DTD/svg11.dtd">
<!-- Creator: CorelDRAW 2018 (64-Bit) -->
<svg xmlns="http://www.w3.org/2000/svg" xml:space="preserve" width="36px" height="100px" version="1.1" style="shape-rendering:geometricPrecision; text-rendering:geometricPrecision; image-rendering:optimizeQuality; fill-rule:evenodd; clip-rule:evenodd"
viewBox="0 0 3.1 8.61"
 xmlns:xlink="http://www.w3.org/1999/xlink">
 <defs>
  <style type="text/css">
   <![CDATA[
    .fil0 {fill:black}
    .fil1 {fill:#ED3237}
    .fil2 {fill:white}
   ]]>
  </style>
 </defs>
 <g id="Layer_x0020_1">
  <metadata id="CorelCorpID_0Corel-Layer"/>
  <g id="_2808917351200">
   <path class="fil0" d="M0.52 0l2.06 0c0.29,0 0.52,0.23 0.52,0.52l0 7.58c0,0.28 -0.23,0.51 -0.52,0.51l-2.06 0c-0.29,0 -0.52,-0.23 -0.52,-0.51l0 -7.58c0,-0.29 0.23,-0.52 0.52,-0.52z"/>
   <path class="fil1" d="M1.55 0.33c0.34,0 0.61,0.27 0.61,0.61 0,0.33 -0.27,0.6 -0.61,0.6 -0.33,0 -0.61,-0.27 -0.61,-0.6 0,-0.34 0.28,-0.61 0.61,-0.61z"/>
   <path class="fil2" d="M1.48 4.98c0,0.33 -0.27,0.61 -0.6,0.61 -0.34,0 -0.61,-0.28 -0.61,-0.61 0,-0.34 0.27,-0.61 0.61,-0.61 0.33,0 0.6,0.27 0.6,0.61z"/>
   <path class="fil2" d="M1.48 6.33c0,0.33 -0.27,0.6 -0.6,0.6 -0.34,0 -0.61,-0.27 -0.61,-0.6 0,-0.34 0.27,-0.61 0.61,-0.61 0.33,0 0.6,0.27 0.6,0.61z"/>
   <path class="fil2" d="M1.48 7.67c0,0.34 -0.27,0.61 -0.6,0.61 -0.34,0 -0.61,-0.27 -0.61,-0.61 0,-0.33 0.27,-0.6 0.61,-0.6 0.33,0 0.6,0.27 0.6,0.6z"/>
   <path class="fil2" d="M2.22 4.37c0.34,0 0.61,0.27 0.61,0.61 0,0.33 -0.27,0.61 -0.61,0.61 -0.33,0 -0.6,-0.28 -0.6,-0.61 0,-0.34 0.27,-0.61 0.6,-0.61z"/>
   <path class="fil2" d="M2.22 5.72c0.34,0 0.61,0.27 0.61,0.61 0,0.33 -0.27,0.6 -0.61,0.6 -0.33,0 -0.6,-0.27 -0.6,-0.6 0,-0.34 0.27,-0.61 0.6,-0.61z"/>
   <path class="fil2" d="M2.22 7.07c0.34,0 0.61,0.27 0.61,0.6 0,0.34 -0.27,0.61 -0.61,0.61 -0.33,0 -0.6,-0.27 -0.6,-0.61 0,-0.33 0.27,-0.6 0.6,-0.6z"/>
  </g>
 </g>
</svg>
