<?xml version="1.0" encoding="UTF-8"?>
<!DOCTYPE svg PUBLIC "-//W3C//DTD SVG 1.1//EN" "http://www.w3.org/Graphics/SVG/1.1/DTD/svg11.dtd">
<!-- Creator: CorelDRAW 2018 (64-Bit) -->
<svg xmlns="http://www.w3.org/2000/svg" xml:space="preserve" width="36px" height="100px" version="1.1" style="shape-rendering:geometricPrecision; text-rendering:geometricPrecision; image-rendering:optimizeQuality; fill-rule:evenodd; clip-rule:evenodd"
viewBox="0 0 2.55 7.09"
 xmlns:xlink="http://www.w3.org/1999/xlink">
 <defs>
  <style type="text/css">
   <![CDATA[
    .fil0 {fill:black}
    .fil1 {fill:#ED3237}
    .fil2 {fill:white}
   ]]>
  </style>
 </defs>
 <g id="Layer_x0020_1">
  <metadata id="CorelCorpID_0Corel-Layer"/>
  <g id="_2809413493984">
   <path class="fil0" d="M0.43 0l1.7 0c0.23,0 0.42,0.19 0.42,0.43l0 6.23c0,0.24 -0.19,0.43 -0.42,0.43l-1.7 0c-0.24,0 -0.43,-0.19 -0.43,-0.43l0 -6.23c0,-0.24 0.19,-0.43 0.43,-0.43z"/>
   <path class="fil1" d="M1.28 0.27c0.27,0 0.49,0.23 0.49,0.5 0,0.28 -0.22,0.5 -0.49,0.5 -0.28,0 -0.5,-0.22 -0.5,-0.5 0,-0.27 0.22,-0.5 0.5,-0.5z"/>
   <path class="fil2" d="M1.22 4.1c0,0.27 -0.22,0.5 -0.5,0.5 -0.27,0 -0.5,-0.23 -0.5,-0.5 0,-0.28 0.23,-0.5 0.5,-0.5 0.28,0 0.5,0.22 0.5,0.5z"/>
   <path class="fil2" d="M1.77 5.21c0,0.27 -0.22,0.5 -0.49,0.5 -0.28,0 -0.5,-0.23 -0.5,-0.5 0,-0.28 0.22,-0.5 0.5,-0.5 0.27,0 0.49,0.22 0.49,0.5z"/>
   <path class="fil2" d="M1.22 6.31c0,0.28 -0.22,0.5 -0.5,0.5 -0.27,0 -0.5,-0.22 -0.5,-0.5 0,-0.27 0.23,-0.49 0.5,-0.49 0.28,0 0.5,0.22 0.5,0.49z"/>
   <path class="fil2" d="M1.83 3.6c0.28,0 0.5,0.22 0.5,0.5 0,0.27 -0.22,0.5 -0.5,0.5 -0.28,0 -0.5,-0.23 -0.5,-0.5 0,-0.28 0.22,-0.5 0.5,-0.5z"/>
   <path class="fil2" d="M1.83 5.82c0.28,0 0.5,0.22 0.5,0.49 0,0.28 -0.22,0.5 -0.5,0.5 -0.28,0 -0.5,-0.22 -0.5,-0.5 0,-0.27 0.22,-0.49 0.5,-0.49z"/>
  </g>
 </g>
</svg>
