<?xml version="1.0" encoding="UTF-8"?>
<!DOCTYPE svg PUBLIC "-//W3C//DTD SVG 1.1//EN" "http://www.w3.org/Graphics/SVG/1.1/DTD/svg11.dtd">
<!-- Creator: CorelDRAW 2018 (64-Bit) -->
<svg xmlns="http://www.w3.org/2000/svg" xml:space="preserve" width="36px" height="100px" version="1.1" style="shape-rendering:geometricPrecision; text-rendering:geometricPrecision; image-rendering:optimizeQuality; fill-rule:evenodd; clip-rule:evenodd"
viewBox="0 0 2.17 6.02"
 xmlns:xlink="http://www.w3.org/1999/xlink">
 <defs>
  <style type="text/css">
   <![CDATA[
    .fil0 {fill:black}
    .fil1 {fill:#ED3237}
    .fil2 {fill:white}
   ]]>
  </style>
 </defs>
 <g id="Layer_x0020_1">
  <metadata id="CorelCorpID_0Corel-Layer"/>
  <g id="_2809579672752">
   <path class="fil0" d="M0.36 0l1.45 0c0.19,0 0.36,0.16 0.36,0.36l0 5.3c0,0.2 -0.17,0.36 -0.36,0.36l-1.45 0c-0.2,0 -0.36,-0.16 -0.36,-0.36l0 -5.3c0,-0.2 0.16,-0.36 0.36,-0.36z"/>
   <path class="fil1" d="M0.61 0.23c0.24,0 0.43,0.19 0.43,0.43 0,0.23 -0.19,0.42 -0.43,0.42 -0.23,0 -0.42,-0.19 -0.42,-0.42 0,-0.24 0.19,-0.43 0.42,-0.43z"/>
   <path class="fil1" d="M1.55 0.23c0.24,0 0.43,0.19 0.43,0.43 0,0.23 -0.19,0.42 -0.43,0.42 -0.23,0 -0.42,-0.19 -0.42,-0.42 0,-0.24 0.19,-0.43 0.42,-0.43z"/>
   <path class="fil1" d="M1.04 2.23c0,0.23 -0.19,0.42 -0.43,0.42 -0.23,0 -0.42,-0.19 -0.42,-0.42 0,-0.24 0.19,-0.43 0.42,-0.43 0.24,0 0.43,0.19 0.43,0.43z"/>
   <path class="fil2" d="M1.04 3.48c0,0.24 -0.19,0.42 -0.43,0.42 -0.23,0 -0.42,-0.18 -0.42,-0.42 0,-0.23 0.19,-0.42 0.42,-0.42 0.24,0 0.43,0.19 0.43,0.42z"/>
   <path class="fil2" d="M1.04 5.36c0,0.24 -0.19,0.43 -0.43,0.43 -0.23,0 -0.42,-0.19 -0.42,-0.43 0,-0.23 0.19,-0.42 0.42,-0.42 0.24,0 0.43,0.19 0.43,0.42z"/>
   <path class="fil1" d="M1.55 1.8c0.24,0 0.43,0.19 0.43,0.43 0,0.23 -0.19,0.42 -0.43,0.42 -0.23,0 -0.42,-0.19 -0.42,-0.42 0,-0.24 0.19,-0.43 0.42,-0.43z"/>
   <path class="fil2" d="M1.55 3.06c0.24,0 0.43,0.19 0.43,0.42 0,0.24 -0.19,0.42 -0.43,0.42 -0.23,0 -0.42,-0.18 -0.42,-0.42 0,-0.23 0.19,-0.42 0.42,-0.42z"/>
   <path class="fil2" d="M1.08 4c0.24,0 0.43,0.19 0.43,0.42 0,0.24 -0.19,0.43 -0.43,0.43 -0.23,0 -0.42,-0.19 -0.42,-0.43 0,-0.23 0.19,-0.42 0.42,-0.42z"/>
   <path class="fil2" d="M1.55 4.94c0.24,0 0.43,0.19 0.43,0.42 0,0.24 -0.19,0.43 -0.43,0.43 -0.23,0 -0.42,-0.19 -0.42,-0.43 0,-0.23 0.19,-0.42 0.42,-0.42z"/>
  </g>
 </g>
</svg>
