<?xml version="1.0" encoding="UTF-8"?>
<!DOCTYPE svg PUBLIC "-//W3C//DTD SVG 1.1//EN" "http://www.w3.org/Graphics/SVG/1.1/DTD/svg11.dtd">
<!-- Creator: CorelDRAW 2018 (64-Bit) -->
<svg xmlns="http://www.w3.org/2000/svg" xml:space="preserve" width="36px" height="100px" version="1.1" style="shape-rendering:geometricPrecision; text-rendering:geometricPrecision; image-rendering:optimizeQuality; fill-rule:evenodd; clip-rule:evenodd"
viewBox="0 0 1.88 5.23"
 xmlns:xlink="http://www.w3.org/1999/xlink">
 <defs>
  <style type="text/css">
   <![CDATA[
    .fil0 {fill:black}
    .fil1 {fill:white}
   ]]>
  </style>
 </defs>
 <g id="Layer_x0020_1">
  <metadata id="CorelCorpID_0Corel-Layer"/>
  <g id="_2809491351216">
   <path class="fil0" d="M0.31 0l1.26 0c0.17,0 0.31,0.14 0.31,0.31l0 4.61c0,0.17 -0.14,0.31 -0.31,0.31l-1.26 0c-0.17,0 -0.31,-0.14 -0.31,-0.31l0 -4.61c0,-0.17 0.14,-0.31 0.31,-0.31z"/>
   <path class="fil1" d="M1.35 0.2c0.2,0 0.37,0.17 0.37,0.37 0,0.2 -0.17,0.37 -0.37,0.37 -0.2,0 -0.37,-0.17 -0.37,-0.37 0,-0.2 0.17,-0.37 0.37,-0.37z"/>
   <path class="fil1" d="M0.9 2.21c0,0.2 -0.16,0.37 -0.37,0.37 -0.2,0 -0.37,-0.17 -0.37,-0.37 0,-0.21 0.17,-0.37 0.37,-0.37 0.21,0 0.37,0.16 0.37,0.37z"/>
   <path class="fil1" d="M0.9 3.03c0,0.2 -0.16,0.36 -0.37,0.36 -0.2,0 -0.37,-0.16 -0.37,-0.36 0,-0.21 0.17,-0.37 0.37,-0.37 0.21,0 0.37,0.16 0.37,0.37z"/>
   <path class="fil1" d="M0.9 3.84c0,0.21 -0.16,0.37 -0.37,0.37 -0.2,0 -0.37,-0.16 -0.37,-0.37 0,-0.2 0.17,-0.36 0.37,-0.36 0.21,0 0.37,0.16 0.37,0.36z"/>
   <path class="fil1" d="M0.9 4.66c0,0.21 -0.16,0.37 -0.37,0.37 -0.2,0 -0.37,-0.16 -0.37,-0.37 0,-0.2 0.17,-0.37 0.37,-0.37 0.21,0 0.37,0.17 0.37,0.37z"/>
   <path class="fil1" d="M0.94 1.02c0.21,0 0.37,0.16 0.37,0.37 0,0.2 -0.16,0.37 -0.37,0.37 -0.2,0 -0.37,-0.17 -0.37,-0.37 0,-0.21 0.17,-0.37 0.37,-0.37z"/>
   <path class="fil1" d="M1.35 2.66c0.2,0 0.37,0.16 0.37,0.37 0,0.2 -0.17,0.36 -0.37,0.36 -0.2,0 -0.37,-0.16 -0.37,-0.36 0,-0.21 0.17,-0.37 0.37,-0.37z"/>
   <path class="fil1" d="M1.35 3.48c0.2,0 0.37,0.16 0.37,0.36 0,0.21 -0.17,0.37 -0.37,0.37 -0.2,0 -0.37,-0.16 -0.37,-0.37 0,-0.2 0.17,-0.36 0.37,-0.36z"/>
   <path class="fil1" d="M1.35 4.29c0.2,0 0.37,0.17 0.37,0.37 0,0.21 -0.17,0.37 -0.37,0.37 -0.2,0 -0.37,-0.16 -0.37,-0.37 0,-0.2 0.17,-0.37 0.37,-0.37z"/>
  </g>
 </g>
</svg>
