<?xml version="1.0" encoding="UTF-8"?>
<!DOCTYPE svg PUBLIC "-//W3C//DTD SVG 1.1//EN" "http://www.w3.org/Graphics/SVG/1.1/DTD/svg11.dtd">
<!-- Creator: CorelDRAW 2018 (64-Bit) -->
<svg xmlns="http://www.w3.org/2000/svg" xml:space="preserve" width="36px" height="100px" version="1.1" style="shape-rendering:geometricPrecision; text-rendering:geometricPrecision; image-rendering:optimizeQuality; fill-rule:evenodd; clip-rule:evenodd"
viewBox="0 0 1.24 3.44"
 xmlns:xlink="http://www.w3.org/1999/xlink">
 <defs>
  <style type="text/css">
   <![CDATA[
    .fil0 {fill:black}
    .fil2 {fill:#ED3237}
    .fil1 {fill:white}
   ]]>
  </style>
 </defs>
 <g id="Layer_x0020_1">
  <metadata id="CorelCorpID_0Corel-Layer"/>
  <g id="_2809417279328">
   <path class="fil0" d="M0.21 0l0.82 0c0.11,0 0.21,0.09 0.21,0.21l0 3.02c0,0.11 -0.1,0.21 -0.21,0.21l-0.82 0c-0.12,0 -0.21,-0.1 -0.21,-0.21l0 -3.02c0,-0.12 0.09,-0.21 0.21,-0.21z"/>
   <path class="fil1" d="M0.35 3.3c-0.13,0 -0.24,-0.11 -0.24,-0.24 0,-0.13 0.11,-0.24 0.24,-0.24 0.13,0 0.24,0.11 0.24,0.24 0,0.13 -0.11,0.24 -0.24,0.24z"/>
   <path class="fil1" d="M0.65 1.99c0,-0.14 0.1,-0.25 0.24,-0.25 0.13,0 0.24,0.11 0.24,0.25 0,0.13 -0.11,0.24 -0.24,0.24 -0.14,0 -0.24,-0.11 -0.24,-0.24z"/>
   <path class="fil2" d="M0.59 1.27c0,-0.13 -0.11,-0.24 -0.24,-0.24 -0.13,0 -0.24,0.11 -0.24,0.24 0,0.13 0.11,0.24 0.24,0.24 0.13,0 0.24,-0.11 0.24,-0.24z"/>
   <path class="fil2" d="M0.59 0.37c0,-0.13 -0.11,-0.24 -0.24,-0.24 -0.13,0 -0.24,0.11 -0.24,0.24 0,0.14 0.11,0.25 0.24,0.25 0.13,0 0.24,-0.11 0.24,-0.25z"/>
   <path class="fil1" d="M0.62 2.77c-0.14,0 -0.24,-0.11 -0.24,-0.25 0,-0.13 0.1,-0.24 0.24,-0.24 0.13,0 0.24,0.11 0.24,0.24 0,0.14 -0.11,0.25 -0.24,0.25z"/>
   <path class="fil2" d="M0.89 1.51c0.13,0 0.24,-0.11 0.24,-0.24 0,-0.13 -0.11,-0.24 -0.24,-0.24 -0.14,0 -0.24,0.11 -0.24,0.24 0,0.13 0.1,0.24 0.24,0.24z"/>
   <path class="fil2" d="M0.89 0.62c0.13,0 0.24,-0.11 0.24,-0.25 0,-0.13 -0.11,-0.24 -0.24,-0.24 -0.14,0 -0.24,0.11 -0.24,0.24 0,0.14 0.1,0.25 0.24,0.25z"/>
  </g>
 </g>
</svg>
